# xmcd
#
# Track frame offsets:
#	150
#	22406
#	40832
#	61397
#	80342
#	89121
#	114653
#	133633
#	155280
#	174364
#	191655
#
# Disc length: 2887
#
# Revision: 1
# Processed by: cddbd v1.5.1PL0 Copyright (c) Steve Scherf et al.
# Submitted via: dBpowerAMP V4.0
# Normalized: r0:TRMNUM
#
DISCID=940b450b
DTITLE=bronco bullfrgo - the sidelong glances of a pigeon kicker
DYEAR=1900
DGENRE=
TTITLE0=banaby slade
TTITLE1=octopus
TTITLE2=tea abd sympathy
TTITLE3=look at me
TTITLE4=stig's not dead
TTITLE5=sunday
TTITLE6=wally's dream
TTITLE7=withc's garbage
TTITLE8=I'm not getting trough
TTITLE9=last chance to smile
TTITLE10=honeybus
EXTD=
EXTT0=
EXTT1=
EXTT2=
EXTT3=
EXTT4=
EXTT5=
EXTT6=
EXTT7=
EXTT8=
EXTT9=
EXTT10=
PLAYORDER=
